# xmcd
#
# Track frame offsets:
#	150
#	16848
#	30359
#	42308
#	61281
#	75357
#	89231
#	108152
#	124980
#	141982
#	158819
#	173890
#	190318
#	205528
#	219480
#	236415
#	237286
#	237986
#	238675
#	239367
#	240142
#	240886
#	241630
#	242361
#	243117
#	243850
#	244525
#	245200
#	245995
#	246725
#	247472
#	248150
#	248935
#	249890
#	250582
#	251221
#	251883
#	252627
#	253363
#	254110
#	254878
#
# Disc length: 3406 seconds
#
# Revision: 1
# Processed by: cddbd v1.5.2PL0 Copyright (c) Steve Scherf et al.
# Submitted via: audiograbber 1.83.01
#
DISCID=4d0d4c29
DTITLE=Various Artist - CDX Volume 643 (February 6, 2017)
DYEAR=2017
DGENRE=Country
TTITLE0=Easton Corbin - A Girl Like You
TTITLE1=Cole Swindell - Flatliner [Radio Edit]
TTITLE2=Kip Moore - More Girls Like You
TTITLE3=Wheeler Bryan - Pour Me Out Of This Town
TTITLE4=Keith Urban (featuring Carrie Underwood) - The Fighter
TTITLE5=Lady Antebellum - You Look Good
TTITLE6=Danny Worsnop - Anyone But Me
TTITLE7=Marty Rhone - Graceland on the Line
TTITLE8=Rachael Turner - Hurts Don't It
TTITLE9=Johnny Orr Band - I Don't Speak Spanish
TTITLE10=Ty Williams - Make America Great Again
TTITLE11=Lisa Bouchelle (featuring John Popper) - Only the Tequila Talkin'
TTITLE12=Caroline Jones - Tough Guys 
TTITLE13=Denny Strickland - We Don't Sleep
TTITLE14=Jamie Talbert and The Band Of Demons - Wildfire
TTITLE15=James Dupre - Radio Liner - My New Single
TTITLE16=James Dupre - Radio Liner - Today's Best Country
TTITLE17=James Dupre - Radio Liner - Kickin' Country
TTITLE18=James Dupre - Radio Liner - Hometown Country
TTITLE19=James Dupre - Radio Liner - Super Country
TTITLE20=James Dupre - Radio Liner - Today's Hot Country
TTITLE21=James Dupre - Radio Liner - Best In Today's Country
TTITLE22=James Dupre - Radio Liner - More of the Country You Love
TTITLE23=James Dupre - Radio Liner - Howlin' Country
TTITLE24=Darryl Ryan - Radio Liner - Today's Best Country
TTITLE25=Darryl Ryan - Radio Liner - Kickin' Country
TTITLE26=Darryl Ryan - Radio Liner - Hometown Country
TTITLE27=Darryl Ryan - Radio Liner - Super Country
TTITLE28=Darryl Ryan - Radio Liner - Today's Hot Country
TTITLE29=Darryl Ryan - Radio Liner - Best In today's Country
TTITLE30=Darryl Ryan - Radio Liner - More of the Country You Love
TTITLE31=Darryl Ryan - Radio Liner - Howlin' Country
TTITLE32=Darryl Ryan - Radio Liner - My New Single
TTITLE33=Denny Strickland - Radio Liner - Today's Best Country
TTITLE34=Denny Strickland - Radio Liner - Kickin' Country
TTITLE35=Denny Strickland - Radio Liner - Hometown Country
TTITLE36=Denny Strickland - Radio Liner - Super Country
TTITLE37=Denny Strickland - Radio Liner - Today's Hot Country
TTITLE38=Denny Strickland - Radio Liner - Best In Today's Country
TTITLE39=Denny Strickland - Radio Liner - More of the Country You Love
TTITLE40=Denny Strickland - Radio Liner - Howlin' Country
EXTD=
EXTT0=
EXTT1=
EXTT2=
EXTT3=
EXTT4=
EXTT5=
EXTT6=
EXTT7=
EXTT8=
EXTT9=
EXTT10=
EXTT11=
EXTT12=
EXTT13=
EXTT14=
EXTT15=
EXTT16=
EXTT17=
EXTT18=
EXTT19=
EXTT20=
EXTT21=
EXTT22=
EXTT23=
EXTT24=
EXTT25=
EXTT26=
EXTT27=
EXTT28=
EXTT29=
EXTT30=
EXTT31=
EXTT32=
EXTT33=
EXTT34=
EXTT35=
EXTT36=
EXTT37=
EXTT38=
EXTT39=
EXTT40=
PLAYORDER=
